<?xml version="1.0" standalone="no"?>
<!DOCTYPE svg PUBLIC "-//W3C//DTD SVG 20010904//EN"
 "http://www.w3.org/TR/2001/REC-SVG-20010904/DTD/svg10.dtd">
<svg version="1.0" xmlns="http://www.w3.org/2000/svg"
 width="256.000000pt" height="192.000000pt" viewBox="0 0 256.000000 192.000000"
 preserveAspectRatio="xMidYMid meet">

<g transform="translate(0.000000,192.000000) scale(0.100000,-0.100000)"
fill="#000000" stroke="none">
<path d="M550 960 l0 -730 730 0 730 0 0 730 0 730 -730 0 -730 0 0 -730z
m187 -396 c17 -18 24 -33 20 -50 -2 -13 1 -28 8 -32 39 -23 45 -89 11 -129
-21 -24 -31 -27 -82 -28 l-59 0 -3 119 c-1 66 0 126 2 133 9 24 74 16 103 -13z
m893 -24 c5 -44 6 -45 43 -46 47 -2 76 -27 83 -75 14 -82 -92 -133 -151 -74
-24 23 -25 31 -25 135 0 110 0 111 23 108 18 -2 23 -11 27 -48z m-661 -66 c22
-18 31 -35 31 -55 0 -29 0 -29 -60 -29 -36 0 -60 -4 -60 -11 0 -6 15 -9 36 -7
27 2 40 -2 48 -15 14 -23 -6 -37 -56 -37 -28 0 -42 7 -62 31 -74 87 36 197
123 123z m147 11 c4 -9 -4 -25 -20 -40 -21 -20 -26 -33 -26 -75 0 -48 -2 -51
-22 -48 -19 2 -24 10 -26 47 -4 55 13 98 47 116 34 18 40 18 47 0z m148 5 c34
-13 56 -59 56 -120 0 -47 -2 -50 -25 -50 -24 0 -25 3 -25 53 0 55 -12 77 -41
77 -32 0 -49 -29 -49 -81 0 -42 -3 -49 -20 -49 -18 0 -20 7 -20 63 1 63 10 85
45 105 25 14 46 15 79 2z m227 -16 c15 -14 59 -122 59 -146 0 -12 -35 -9 -48
4 -9 9 -15 9 -24 0 -22 -22 -86 -14 -113 13 -43 42 -27 122 29 145 27 12 75 4
97 -16z m440 -3 c17 -17 29 -40 29 -55 0 -25 -2 -26 -66 -26 -44 0 -63 -4 -59
-11 4 -6 23 -9 42 -7 21 2 37 -3 43 -12 14 -23 -8 -40 -52 -40 -50 0 -88 37
-88 87 0 46 46 93 90 93 22 0 41 -9 61 -29z"/>
<path d="M680 520 c0 -13 5 -20 13 -17 6 2 12 10 12 17 0 7 -6 15 -12 18 -8 2
-13 -5 -13 -18z"/>
<path d="M687 453 c-4 -3 -7 -24 -7 -45 0 -33 3 -38 23 -38 29 0 47 18 47 47
0 29 -45 55 -63 36z"/>
<path d="M1642 441 c-8 -5 -12 -21 -10 -37 2 -24 8 -29 35 -32 28 -3 33 1 39
23 10 42 -27 70 -64 46z"/>
<path d="M885 440 c-4 -6 7 -10 25 -10 18 0 29 4 25 10 -3 6 -15 10 -25 10
-10 0 -22 -4 -25 -10z"/>
<path d="M1400 436 c-6 -8 -10 -25 -8 -38 2 -19 9 -23 38 -23 29 0 36 4 38 23
4 28 -14 52 -38 52 -10 0 -23 -7 -30 -14z"/>
<path d="M1845 440 c-4 -6 7 -10 25 -10 18 0 29 4 25 10 -3 6 -15 10 -25 10
-10 0 -22 -4 -25 -10z"/>
</g>
</svg>
